<svg width="24" height="24" viewBox="0 0 24 24" fill="none" xmlns="http://www.w3.org/2000/svg">
<g id="SVG">
<g id="icon">
<g id="Group">
<path id="Vector" d="M15.1905 2L18.8105 5.63M8.81055 2L5.19055 5.63" stroke="white" stroke-width="1.5" stroke-miterlimit="10" stroke-linecap="round" stroke-linejoin="round"/>
<path id="Vector_2" d="M22 7.84998C22 5.99998 21.01 5.84998 19.78 5.84998H4.22C2.99 5.84998 2 5.99998 2 7.84998C2 9.99998 2.99 9.84998 4.22 9.84998H19.78C21.01 9.84998 22 9.99998 22 7.84998Z" stroke="white" stroke-width="1.5"/>
<path id="Vector_3" d="M14.24 14V17.55M9.64 14V17.55M20.5 10L19.09 18.64C18.77 20.58 18 22 15.14 22H9.11C6 22 5.54 20.64 5.18 18.76L3.5 10" stroke="white" stroke-width="1.5" stroke-linecap="round"/>
</g>
</g>
</g>
</svg>
