<svg width="24" height="24" viewBox="0 0 24 24" fill="none" xmlns="http://www.w3.org/2000/svg">
<path d="M15.1905 22L18.8105 25.63M8.81055 22L5.19055 25.63" stroke="white" stroke-width="1.5" stroke-miterlimit="10" stroke-linecap="round" stroke-linejoin="round"/>
<path d="M22 27.85C22 26 21.01 25.85 19.78 25.85H4.22C2.99 25.85 2 26 2 27.85C2 30 2.99 29.85 4.22 29.85H19.78C21.01 29.85 22 30 22 27.85Z" stroke="white" stroke-width="1.5"/>
<path d="M14.24 34V37.55M9.64 34V37.55M20.5 30L19.09 38.64C18.77 40.58 18 42 15.14 42H9.11C6 42 5.54 40.64 5.18 38.76L3.5 30" stroke="white" stroke-width="1.5" stroke-linecap="round"/>
</svg>
